<?xml version="1.0" standalone="no"?><!DOCTYPE svg PUBLIC "-//W3C//DTD SVG 1.1//EN" "http://www.w3.org/Graphics/SVG/1.1/DTD/svg11.dtd"><svg width="175" height="135.46271785026735" viewBox="0 0 175 135.46271785026735" class="css-1j8o68f" version="1.1" xmlns:xlink="http://www.w3.org/1999/xlink" xmlns="http://www.w3.org/2000/svg"><defs xmlns="http://www.w3.org/1999/xhtml"><style type="text/css"><![CDATA[]]></style></defs><defs xmlns="http://www.w3.org/1999/xhtml"><style type="text/css"></style></defs><defs xmlns="http://www.w3.org/1999/xhtml"><style type="text/css"></style></defs><defs xmlns="http://www.w3.org/1999/xhtml"><style type="text/css"></style></defs><defs xmlns="http://www.w3.org/1999/xhtml"><style type="text/css"></style></defs><defs xmlns="http://www.w3.org/1999/xhtml"><style type="text/css"></style></defs><defs xmlns="http://www.w3.org/1999/xhtml"><style type="text/css"></style></defs><defs id="SvgjsDefs6688"/><g id="SvgjsG6689" featurekey="v37d4h-0" transform="matrix(1.5441746390024607,0,0,1.5441746390024607,-49.63637527143427,-9.302108284535409)" fill="#4ecca3"><path xmlns="http://www.w3.org/2000/svg" d="M52.094,93.749c0.001,0,11.108-7.41,0.883-22.909c-4.773-7.235-12.596-14.971-11.701-22.63  c-1.015,0.883-1.937,1.859-2.38,2.453c-1.618,2.169-2.791,4.529-3.392,6.964c-0.697,2.823-0.515,5.795,1.102,8.686  c1.501,2.683,4.107,5.103,6.558,7.537c5.868,5.826,11.036,12.018,9.461,18.607C52.541,92.811,52.5,93.478,52.094,93.749z"/><path xmlns="http://www.w3.org/2000/svg" d="M59.398,79.14c0.001-0.001,17.835-11.897,1.417-36.782C53.152,30.742,40.592,18.321,42.03,6.024  c-1.365,1.194-3.11,2.985-3.821,3.939c-2.598,3.482-4.481,7.271-5.446,11.181c-1.12,4.533-0.827,9.304,1.77,13.946  c2.41,4.308,6.594,8.193,10.53,12.102c9.421,9.355,17.719,19.295,15.19,29.876C60.116,77.635,60.049,78.706,59.398,79.14z"/></g><g id="SvgjsG6690" featurekey="UxBHKT-0" transform="matrix(5.767012636679568,0,0,5.767012636679568,73.9619359654451,-14.643597721477384)" fill="#393e46"><path d="M3 24.12 l1.9 -4.52 l-4.72 -10.56 l3.46 0 l2.78 7 l2.56 -7 l3.46 0 l-6.14 15.08 l-3.3 0 z M17.04 7.369999999999999 q-0.48 0.47 -1.16 0.47 q-0.7 0 -1.19 -0.47 t-0.49 -1.15 q0 -0.66 0.49 -1.13 t1.19 -0.47 q0.68 0 1.16 0.47 t0.48 1.13 q0 0.68 -0.48 1.15 z M14.379999999999999 9.02 l3 0 l0 10.98 l-3 0 l0 -10.98 z"/></g></svg>